<?xml version="1.0" encoding="UTF-8" standalone="no"?>
<svg
   version="1.1"
   width="647"
   height="631"
   id="svg113"
   sodipodi:docname="17121625409836421.svg"
   inkscape:export-filename="17121625409836421h.svg"
   inkscape:export-xdpi="96"
   inkscape:export-ydpi="96"
   xmlns:inkscape="http://www.inkscape.org/namespaces/inkscape"
   xmlns:sodipodi="http://sodipodi.sourceforge.net/DTD/sodipodi-0.dtd"
   xmlns:xlink="http://www.w3.org/1999/xlink"
   xmlns="http://www.w3.org/2000/svg"
   xmlns:svg="http://www.w3.org/2000/svg">
  <defs
     id="defs113">
    <linearGradient
       id="linearGradient118"
       inkscape:collect="always">
      <stop
         style="stop-color:#edbb39;stop-opacity:1;"
         offset="0"
         id="stop119" />
      <stop
         style="stop-color:#fcf6e4;stop-opacity:0;"
         offset="1"
         id="stop120" />
    </linearGradient>
    <radialGradient
       inkscape:collect="always"
       xlink:href="#linearGradient118"
       id="radialGradient120"
       cx="323.50134"
       cy="317.82913"
       fx="323.50134"
       fy="317.82913"
       r="323.77774"
       gradientTransform="matrix(1,0,0,0.97529113,-11.642067,-3.0127346)"
       gradientUnits="userSpaceOnUse" />
  </defs>
  <sodipodi:namedview
     id="namedview113"
     pagecolor="#ffffff"
     bordercolor="#000000"
     borderopacity="0.25"
     inkscape:showpageshadow="2"
     inkscape:pageopacity="0.0"
     inkscape:pagecheckerboard="0"
     inkscape:deskcolor="#d1d1d1"
     inkscape:export-bgcolor="#ffffff00" />
  <path
     d="m 76.375643,-8.6712246 c 2.11314,-0.002 4.22628,-0.004 6.33942,-0.007 5.77684,-0.006 11.55366,-0.006 17.330497,-0.005 6.24221,2e-4 12.48441,-0.005 18.72662,-0.0101 12.21867,-0.008 24.43734,-0.0111 36.65602,-0.0116 9.93656,-4.6e-4 19.87311,-0.003 29.80967,-0.006 2.86571,-9e-4 5.73142,-0.002 8.59713,-0.003 1.0688,-3.4e-4 1.0688,-3.4e-4 2.15919,-6.7e-4 20.02873,-0.006 40.05747,-0.0101 60.08621,-0.01 0.75435,10e-6 1.5087,3e-5 2.28592,4e-5 3.82291,9e-5 7.64582,1.9e-4 11.46873,2.9e-4 0.75917,2e-5 1.51834,4e-5 2.30051,6e-5 1.53523,4e-5 3.07046,8e-5 4.60568,1.2e-4 23.87476,6.2e-4 47.7495,-0.007 71.62426,-0.0206 26.85735,-0.0154 53.71469,-0.024 80.57205,-0.023 2.86791,8e-5 5.73582,1.3e-4 8.60373,1.6e-4 0.70609,10e-6 1.41218,2e-5 2.13966,3e-5 11.32604,3e-5 22.65206,-0.006 33.97809,-0.015 11.39789,-0.009 22.79576,-0.009 34.19366,-0.003 6.1656,0.003 12.33116,0.003 18.49675,-0.005 5.65731,-0.008 11.31455,-0.006 16.97185,0.002 2.03359,0.002 4.06719,-2.5e-4 6.10077,-0.006 52.95202,-0.13646 52.95202,-0.13646 70.97103,17.06794 16.81228,18.7174496 15.11906,47.0719406 15.09855,70.5977896 0.002,2.04715 0.004,4.09429 0.007,6.14143 0.006,5.59442 0.006,11.18881 0.005,16.783235 -2e-4,6.04588 0.005,12.09176 0.0101,18.13765 0.008,11.83366 0.0111,23.66731 0.0116,35.50097 4.6e-4,9.62382 0.003,19.24763 0.006,28.87145 9e-4,2.77584 0.002,5.55168 0.003,8.32751 2.2e-4,0.6902 4.4e-4,1.38039 6.7e-4,2.0915 0.006,19.4 0.0101,38.8 0.01,58.20001 -2e-5,0.73062 -4e-5,1.46125 -5e-5,2.21402 -8e-5,3.70265 -1.8e-4,7.40529 -2.9e-4,11.10794 -3e-5,1.10292 -3e-5,1.10292 -6e-5,2.22813 -4e-5,1.48692 -8e-5,2.97384 -1.2e-4,4.46076 -6.1e-4,23.12288 0.007,46.24574 0.0206,69.36861 0.0154,26.01355 0.024,52.02709 0.023,78.04064 -8e-5,2.77804 -1.3e-4,5.55608 -1.6e-4,8.33411 -10e-6,1.02594 -10e-6,1.02594 -3e-5,2.07261 -3e-5,10.96898 0.006,21.93794 0.015,32.90692 0.008,11.03942 0.009,22.07883 0.003,33.11826 -0.003,5.97117 -0.003,11.9423 0.005,17.91347 0.008,5.47967 0.006,10.95926 -0.002,16.43893 -0.002,1.96899 2.3e-4,3.93798 0.006,5.90696 0.13964,52.43741 0.13964,52.43741 -17.06795,70.45975 -18.86133,16.94152 -47.51813,15.11854 -71.20522,15.09856 -2.11313,0.002 -4.22627,0.004 -6.33941,0.007 -5.77684,0.006 -11.55366,0.006 -17.3305,0.005 -6.24221,-2.1e-4 -12.48441,0.005 -18.72662,0.01 -12.21867,0.008 -24.43734,0.0111 -36.65602,0.0116 -9.93656,4.6e-4 -19.87311,0.003 -29.80967,0.006 -2.86571,9e-4 -5.73142,0.002 -8.59713,0.003 -1.0688,3.3e-4 -1.0688,3.3e-4 -2.15919,6.7e-4 -20.02873,0.006 -40.05747,0.0101 -60.08621,0.01 -0.75435,-2e-5 -1.5087,-3e-5 -2.28592,-5e-5 -3.82291,-8e-5 -7.64582,-1.8e-4 -11.46873,-2.8e-4 -0.75917,-2e-5 -1.51834,-4e-5 -2.30051,-6e-5 -1.53523,-4e-5 -3.07046,-9e-5 -4.60568,-1.3e-4 -23.87476,-6.1e-4 -47.7495,0.007 -71.62426,0.0206 -26.85735,0.0154 -53.71469,0.024 -80.57205,0.023 -2.86791,-7e-5 -5.73582,-1.2e-4 -8.60373,-1.5e-4 -0.70609,-2e-5 -1.41218,-3e-5 -2.13966,-4e-5 -11.32604,-3e-5 -22.65206,0.006 -33.97809,0.015 -11.39789,0.009 -22.79576,0.009 -34.19366,0.003 -6.1656,-0.003 -12.33116,-0.003 -18.496747,0.005 -5.65731,0.008 -11.31455,0.006 -16.97185,-0.002 -2.03359,-0.002 -4.06719,2.4e-4 -6.10077,0.006 -52.95202,0.13646 -52.95202,0.13646 -70.9710293,-17.06795 -16.8122807,-18.71745 -15.1190607,-47.07194 -15.0985507,-70.59779 -0.002,-2.04714 -0.004,-4.09428 -0.007,-6.14143 -0.006,-5.59441 -0.006,-11.18881 -0.005,-16.78322 2e-4,-6.04589 -0.005,-12.09177 -0.0101,-18.13765 -0.008,-11.83366 -0.0111,-23.66732 -0.0116,-35.50098 -4.6e-4,-9.62382 -0.003,-19.24764 -0.006,-28.87146 -9e-4,-2.77583 -0.002,-5.55167 -0.003,-8.32751 -2.2e-4,-0.69019 -4.4e-4,-1.38038 -6.7e-4,-2.09149 -0.006,-19.4 -0.0101,-38.80001 -0.01,-58.20001 2e-5,-0.73063 3e-5,-1.46126 5e-5,-2.21402 8e-5,-3.70265 1.8e-4,-7.4053 2.9e-4,-11.10794 2e-5,-0.73529 4e-5,-1.47057 6e-5,-2.22813 4e-5,-1.48692 8e-5,-2.97384 1.2e-4,-4.46076 6.1e-4,-23.12288 -0.007,-46.24574 -0.0206,-69.36861 -0.0154,-26.01355 -0.024,-52.02709 -0.023,-78.04064 8e-5,-2.77804 1.2e-4,-5.55608 1.6e-4,-8.33412 10e-6,-0.68396 2e-5,-1.36791 3e-5,-2.0726 3e-5,-10.96898 -0.006,-21.93795 -0.015,-32.90692 -0.009,-11.03941 -0.009,-22.07882 -0.003,-33.11825 0.003,-5.97118 0.003,-11.94231 -0.005,-17.913485 -0.008,-5.47967 -0.006,-10.95926 0.002,-16.43893 0.002,-1.96898 -2.3e-4,-3.93798 -0.006,-5.90696 -0.14116,-52.43883 -0.14116,-52.43883 17.0664307,-70.4611696 18.8613293,-16.9415104 47.5181293,-15.11854 71.2052093,-15.09855 z"
     fill="#fcf6e4"
     id="path1"
     style="fill:url(#radialGradient120)" />
  <path
     id="path2"
     style="stroke:#000000;stroke-width:1.07801;stroke-opacity:1"
     d="M 367.31641,38.681641 C 276.42376,91.793577 191.80968,165.71407 150.8437,264.92698 c -23.61668,58.0374 -33.90987,127.74213 -2.76619,185.06611 24.20173,43.30337 72.34349,67.4779 118.89678,78.93667 72.63011,16.25217 154.54578,-1.25241 209.63396,-52.49306 22.67121,-18.69247 -0.97589,-41.89682 -23.5883,-38.55931 -24.42251,-5.0778 -50.97398,9.56256 -73.38985,-4.42644 -27.07126,-20.21975 -26.26764,-57.8362 -29.80216,-88.2577 -5.19927,-50.1688 -2.57951,-107.40825 32.82077,-146.85975 14.03883,-15.41526 33.57896,-26.39573 55.00117,-23.06983 24.21093,-1.36764 55.28099,2.76224 72.07887,-18.64803 15.73059,-26.15683 -12.79368,-48.01613 -35.79135,-53.96928 -30.31335,-8.628772 -64.69776,-7.3289 -93.44364,5.6292 -42.72058,25.79887 -86.22477,62.39644 -94.27165,114.55444 -6.47197,44.46558 -4.10344,92.58626 -27.33108,132.68435 -8.99274,13.20924 -22.45798,29.0297 -38.87739,29.79988 -31.70346,-10.03727 -39.37938,-47.93562 -40.29109,-77.08459 -1.14018,-50.03378 26.01001,-96.19853 57.70849,-133.0439 29.25602,-33.86767 66.04531,-59.88093 103.13071,-84.355277 15.58785,-12.604808 27.31459,-31.583242 26.75466,-52.148822 z M 325.97852,204.90039 c -5.05842,65.18342 25.96568,130.03087 7.75013,194.69918 -13.74921,23.09107 -43.77495,10.65797 -45.29651,-13.44142 -6.93168,-24.39949 0.96607,-49.24045 0.67995,-73.97033 3.50415,-37.93537 14.10129,-76.21559 36.86643,-107.28743 z" />
</svg>
